<svg width="20" height="21" viewBox="0 0 20 21" xmlns="http://www.w3.org/2000/svg">
<path fill-rule="evenodd" clip-rule="evenodd" d="M8.8786 3.26913C8.62403 3.26913 8.38704 3.39898 8.25002 3.61354L7.97716 4.04082C7.8133 4.29741 7.47246 4.37258 7.21587 4.20873C6.95928 4.04487 6.8841 3.70403 7.04796 3.44743L7.32082 3.02015C7.66038 2.48843 8.2477 2.16663 8.8786 2.16663H15.8643C16.3191 2.16663 16.7579 2.33429 17.0968 2.63756L17.4422 2.94664C17.8341 3.29727 18.058 3.7982 18.058 4.32402V11.6454C18.058 12.229 17.7824 12.7783 17.3146 13.1271L17.0344 13.3361C16.7152 13.5741 16.3277 13.7027 15.9295 13.7027H14.9543C14.9317 13.7027 14.9099 13.7105 14.8924 13.7249L12.4896 15.7052C11.9185 16.1759 11.0573 15.7696 11.0573 15.0296V13.1514C11.0573 12.847 11.3041 12.6001 11.6086 12.6001C11.913 12.6001 12.1598 12.847 12.1598 13.1514V14.5483L14.1912 12.8741C14.4061 12.697 14.6759 12.6001 14.9543 12.6001H15.9295C16.0902 12.6001 16.2466 12.5483 16.3754 12.4522L16.6555 12.2433C16.8443 12.1025 16.9555 11.8809 16.9555 11.6454V4.32402C16.9555 4.11185 16.8652 3.90972 16.707 3.76823L16.3616 3.45915C16.2249 3.33679 16.0478 3.26913 15.8643 3.26913H8.8786Z"/>
<path d="M10.134 10.4149C10.134 12.7765 8.30016 14.6909 6.03801 14.6909C3.77585 14.6909 1.94202 12.7765 1.94202 10.4149C1.94202 8.05333 3.77585 6.13888 6.03801 6.13888C8.30016 6.13888 10.134 8.05333 10.134 10.4149ZM2.90038 10.4149C2.90038 12.224 4.30514 13.6905 6.03801 13.6905C7.77087 13.6905 9.17563 12.224 9.17563 10.4149C9.17563 8.60588 7.77087 7.13937 6.03801 7.13937C4.30514 7.13937 2.90038 8.60588 2.90038 10.4149Z"/>
<path fill-rule="evenodd" clip-rule="evenodd" d="M6.03801 14.6909C8.30016 14.6909 10.134 12.7765 10.134 10.4149C10.134 8.05333 8.30016 6.13888 6.03801 6.13888C3.77585 6.13888 1.94202 8.05333 1.94202 10.4149C1.94202 12.7765 3.77585 14.6909 6.03801 14.6909ZM6.03801 13.6905C4.30514 13.6905 2.90038 12.224 2.90038 10.4149C2.90038 8.60588 4.30514 7.13937 6.03801 7.13937C7.77087 7.13937 9.17563 8.60588 9.17563 10.4149C9.17563 12.224 7.77087 13.6905 6.03801 13.6905Z"/>
<path fill-rule="evenodd" clip-rule="evenodd" d="M6.12467 16.0966C5.50444 16.0966 4.89234 16.2378 4.33475 16.5094L2.83881 17.2382C2.56511 17.3716 2.23515 17.2578 2.10181 16.9841C1.96847 16.7104 2.08225 16.3804 2.35595 16.2471L3.85189 15.5183C4.55989 15.1734 5.33712 14.9941 6.12467 14.9941C6.78715 14.9941 7.4435 15.121 8.05827 15.3678L8.29173 15.4616C9.06025 15.7701 9.76263 16.2229 10.361 16.7955L11.4982 17.8838C11.7181 18.0943 11.7258 18.4432 11.5153 18.6632C11.3048 18.8831 10.9559 18.8908 10.7359 18.6803L9.5987 17.5921C9.102 17.1167 8.51892 16.7408 7.88093 16.4847L7.64747 16.3909C7.16331 16.1965 6.64641 16.0966 6.12467 16.0966Z"/>
<path d="M12.884 11.0269C12.6687 11.0269 12.4559 10.9978 12.2456 10.9395C12.0354 10.8813 11.8454 10.7863 11.6756 10.6545C11.5059 10.5228 11.3704 10.348 11.269 10.1301C11.2073 9.99595 11.1644 9.84298 11.1403 9.67122C11.113 9.47691 11.2761 9.31694 11.4723 9.31694C11.6686 9.31694 11.8201 9.47814 11.8613 9.67001C11.8758 9.73766 11.895 9.79983 11.9188 9.85654C11.9822 9.99841 12.0658 10.1111 12.1696 10.1947C12.2735 10.2758 12.3875 10.3341 12.5116 10.3695C12.6358 10.4025 12.7599 10.4189 12.884 10.4189C13.1095 10.4189 13.3008 10.3822 13.4578 10.3087C13.6174 10.2353 13.739 10.1314 13.8226 9.99714C13.9062 9.86287 13.948 9.70454 13.948 9.52214C13.948 9.37014 13.9138 9.23334 13.8454 9.11174C13.777 8.99014 13.6643 8.87868 13.5072 8.77734C13.3527 8.67348 13.1437 8.57848 12.8802 8.49234C12.561 8.39354 12.2849 8.27321 12.0518 8.13134C11.8213 7.98948 11.6427 7.81468 11.516 7.60695C11.3919 7.39668 11.3298 7.14208 11.3298 6.84315C11.3298 6.53155 11.397 6.26302 11.5312 6.03755C11.6655 5.81208 11.8555 5.63855 12.1012 5.51695C12.347 5.39535 12.6358 5.33455 12.9676 5.33455C13.3122 5.33455 13.606 5.40295 13.8492 5.53975C14.095 5.67655 14.2824 5.87795 14.4116 6.14395C14.5007 6.32217 14.5597 6.52764 14.5885 6.76034C14.6125 6.95404 14.451 7.11295 14.2558 7.11295C14.0606 7.11295 13.908 6.95302 13.8699 6.7616C13.8327 6.57507 13.7638 6.41225 13.663 6.27315C13.5034 6.05275 13.2716 5.94255 12.9676 5.94255C12.7574 5.94255 12.5826 5.98055 12.4432 6.05655C12.3064 6.13002 12.2051 6.23388 12.1392 6.36815C12.0734 6.49988 12.0404 6.65442 12.0404 6.83175C12.0404 6.99388 12.0734 7.13575 12.1392 7.25735C12.2051 7.37895 12.3166 7.48915 12.4736 7.58795C12.6332 7.68421 12.8511 7.77921 13.1272 7.87295C13.454 7.97681 13.7314 8.09968 13.9594 8.24154C14.1874 8.38088 14.361 8.55314 14.48 8.75834C14.5991 8.96354 14.6586 9.21561 14.6586 9.51454C14.6586 9.84134 14.5852 10.1175 14.4382 10.3429C14.2913 10.5659 14.0848 10.7356 13.8188 10.8521C13.5554 10.9687 13.2438 11.0269 12.884 11.0269ZM12.9087 11.7375C12.7524 11.7375 12.6256 11.6108 12.6256 11.4544V11.0098C12.6256 10.8535 12.7524 10.7267 12.9087 10.7267C13.0651 10.7267 13.1918 10.8535 13.1918 11.0098V11.4544C13.1918 11.6108 13.0651 11.7375 12.9087 11.7375ZM12.9771 5.67275C12.8187 5.67275 12.6902 5.5443 12.6902 5.38585V4.80445C12.6902 4.646 12.8187 4.51755 12.9771 4.51755C13.1356 4.51755 13.264 4.646 13.264 4.80445V5.38585C13.264 5.5443 13.1356 5.67275 12.9771 5.67275Z"/>
</svg>
