<svg width="20" height="21" viewBox="0 0 20 21" fill="none" xmlns="http://www.w3.org/2000/svg">
<path fill-rule="evenodd" clip-rule="evenodd" d="M12.1096 10.7606C11.732 10.5592 11.3108 10.4539 10.8829 10.4539H9.36158C8.94938 10.4539 8.54432 10.5615 8.18644 10.766C7.95776 10.8967 7.75248 11.0646 7.57904 11.2628L7.43832 11.4236C7.11802 11.7897 6.89927 12.2333 6.80388 12.7102C6.73184 13.0705 6.73184 13.4414 6.80388 13.8016L6.88811 14.2227C6.92867 14.4255 7.00643 14.6191 7.11746 14.7935L7.23882 14.9842C7.34073 15.1444 7.48858 15.2701 7.66306 15.3448C7.78047 15.3952 7.90689 15.4211 8.03464 15.4211H12.4974C12.618 15.4211 12.737 15.393 12.8449 15.3391C12.9869 15.2681 13.1037 15.1554 13.1797 15.0161L13.3202 14.7584C13.403 14.6067 13.4623 14.4434 13.4962 14.274L13.5948 13.7809C13.6641 13.4343 13.6641 13.0775 13.5948 12.731C13.4969 12.2416 13.2642 11.7893 12.9228 11.4253L12.7845 11.2778C12.5894 11.0696 12.3613 10.8949 12.1096 10.7606ZM10.8829 11.464H9.36158C9.12516 11.464 8.89285 11.5257 8.68758 11.643C8.55643 11.7179 8.43869 11.8142 8.33922 11.9279L8.19849 12.0888C7.99447 12.3219 7.85513 12.6045 7.79437 12.9083C7.74847 13.1378 7.74847 13.3741 7.79437 13.6035L7.87859 14.0246C7.89469 14.1051 7.92556 14.182 7.96964 14.2512L8.07131 14.411H12.3591L12.4335 14.2747C12.4674 14.2124 12.4918 14.1454 12.5057 14.0759L12.6043 13.5828C12.6474 13.367 12.6474 13.1448 12.6043 12.9291C12.5434 12.6244 12.3984 12.3428 12.1859 12.1161L12.0476 11.9686C11.9281 11.8411 11.7884 11.7341 11.6342 11.6518C11.403 11.5285 11.145 11.464 10.8829 11.464Z" fill="#A9C2D6"/>
<path fill-rule="evenodd" clip-rule="evenodd" d="M3.92107 9.68723C3.75964 9.68723 3.5999 9.72002 3.45152 9.78361C3.19238 9.89467 2.981 10.094 2.85491 10.3462L2.82312 10.4097C2.72688 10.6022 2.67678 10.8144 2.67678 11.0296V12.1669C2.67678 12.4053 2.77147 12.6339 2.94002 12.8024L2.95829 12.8207C2.98799 12.8504 3.02056 12.8771 3.05551 12.9004C3.16029 12.9702 3.2834 13.0075 3.40933 13.0075H4.05025L4.12268 12.6453C4.19675 12.275 4.30908 11.9133 4.45785 11.5662L4.52875 11.4008C4.61285 11.2045 4.71474 11.0164 4.83317 10.8388C5.05836 10.501 5.34029 10.2056 5.66584 9.96534C5.25165 9.78397 4.80197 9.68723 4.34936 9.68723H3.92107ZM6.62947 9.94637L6.9325 9.54233C6.19153 8.9866 5.27901 8.67713 4.34936 8.67713H3.92107C3.62285 8.67713 3.32773 8.73771 3.05362 8.85518C2.57489 9.06035 2.18438 9.42857 1.95146 9.89442L1.91966 9.95801C1.7533 10.2907 1.66669 10.6576 1.66669 11.0296V12.1669C1.66669 12.6732 1.8678 13.1587 2.22578 13.5167L2.24404 13.5349C2.32078 13.6117 2.40491 13.6806 2.4952 13.7408C2.76591 13.9213 3.08398 14.0176 3.40933 14.0176H4.87833L5.11317 12.8434C5.17352 12.5416 5.26505 12.247 5.38628 11.9641L5.45717 11.7987C5.51697 11.6591 5.58942 11.5254 5.67362 11.3991C5.86927 11.1056 6.12516 10.8571 6.42426 10.6702L6.89715 10.3746L6.62947 9.94637Z" fill="#A9C2D6"/>
<path fill-rule="evenodd" clip-rule="evenodd" d="M14.9553 9.68723C14.8746 9.68723 14.7941 9.69713 14.7158 9.71671C14.5716 9.75277 14.4374 9.82092 14.3232 9.9161L14.3196 9.91909C14.5662 10.1314 14.7872 10.373 14.9774 10.6392L15.1873 10.9331L15.3911 11.2388C15.6352 11.6049 15.7988 12.0187 15.8711 12.4527C15.8993 12.6217 15.9134 12.7927 15.9134 12.964V13.0075H16.5246C16.6335 13.0075 16.7409 12.9822 16.8382 12.9335L16.9243 12.8904C16.9875 12.8588 17.0451 12.8173 17.095 12.7674C17.1867 12.6757 17.2493 12.5589 17.2747 12.4317L17.3017 12.2968C17.316 12.225 17.3232 12.152 17.3232 12.0789V11.0201C17.3232 10.9322 17.3146 10.8445 17.2973 10.7583C17.2537 10.5402 17.1562 10.3364 17.0138 10.1655L17.0045 10.1543C16.85 9.96884 16.6468 9.83017 16.4178 9.75384C16.2854 9.70972 16.1468 9.68723 16.0073 9.68723H14.9553ZM13.4979 9.94637L13.1746 9.55838L13.6765 9.14012C13.9075 8.94759 14.1791 8.80971 14.4708 8.73677C14.6293 8.69716 14.792 8.67713 14.9553 8.67713H16.0073C16.2554 8.67713 16.5019 8.71713 16.7372 8.79558C17.1444 8.93131 17.5057 9.17789 17.7805 9.50763L17.7898 9.51883C18.04 9.81904 18.2112 10.177 18.2878 10.5602C18.3181 10.7116 18.3333 10.8657 18.3333 11.0201V12.0789C18.3333 12.2186 18.3195 12.3579 18.2921 12.4949L18.2652 12.6298C18.2006 12.9525 18.042 13.2489 17.8093 13.4816C17.6826 13.6083 17.5363 13.7138 17.3761 13.7939L17.29 13.8369C17.0523 13.9557 16.7903 14.0176 16.5246 14.0176H14.9033V12.964C14.9033 12.8483 14.8938 12.7328 14.8748 12.6187C14.8259 12.3257 14.7154 12.0463 14.5506 11.7991L14.3558 11.5069L14.1554 11.2263C13.911 10.8841 13.5987 10.5958 13.2381 10.3794L13.4979 9.94637Z" fill="#A9C2D6"/>
<path fill-rule="evenodd" clip-rule="evenodd" d="M10 8.46172C10.7083 8.46172 11.2825 7.88755 11.2825 7.17927C11.2825 6.47099 10.7083 5.89682 10 5.89682C9.29172 5.89682 8.71755 6.47099 8.71755 7.17927C8.71755 7.88755 9.29172 8.46172 10 8.46172ZM10 9.47182C11.2661 9.47182 12.2926 8.44541 12.2926 7.17927C12.2926 5.91313 11.2661 4.88672 10 4.88672C8.73386 4.88672 7.70745 5.91313 7.70745 7.17927C7.70745 8.44541 8.73386 9.47182 10 9.47182Z" fill="#A9C2D6"/>
<path fill-rule="evenodd" clip-rule="evenodd" d="M15.5358 7.44281C15.9627 7.44281 16.3088 7.09673 16.3088 6.66981C16.3088 6.2429 15.9627 5.89682 15.5358 5.89682C15.1088 5.89682 14.7628 6.2429 14.7628 6.66981C14.7628 7.09673 15.1088 7.44281 15.5358 7.44281ZM15.5358 8.45291C16.5205 8.45291 17.3189 7.65459 17.3189 6.66981C17.3189 5.68504 16.5205 4.88672 15.5358 4.88672C14.551 4.88672 13.7527 5.68504 13.7527 6.66981C13.7527 7.65459 14.551 8.45291 15.5358 8.45291Z" fill="#A9C2D6"/>
<path fill-rule="evenodd" clip-rule="evenodd" d="M4.46411 7.44281C4.89102 7.44281 5.23711 7.09673 5.23711 6.66981C5.23711 6.2429 4.89102 5.89682 4.46411 5.89682C4.03719 5.89682 3.69111 6.2429 3.69111 6.66981C3.69111 7.09673 4.03719 7.44281 4.46411 7.44281ZM4.46411 8.45291C5.44888 8.45291 6.2472 7.65459 6.2472 6.66981C6.2472 5.68504 5.44888 4.88672 4.46411 4.88672C3.47933 4.88672 2.68101 5.68504 2.68101 6.66981C2.68101 7.65459 3.47933 8.45291 4.46411 8.45291Z" fill="#A9C2D6"/>
</svg>
