<svg width="21" height="21" viewBox="0 0 21 21" xmlns="http://www.w3.org/2000/svg">
<path d="M5.19607 2.60853C5.19607 3.88304 4.16288 4.91623 2.88838 4.91623C1.61388 4.91623 0.580688 3.88304 0.580688 2.60853C0.580688 1.33403 1.61388 0.300842 2.88838 0.300842C4.16288 0.300842 5.19607 1.33403 5.19607 2.60853Z"/>
<path d="M5.19607 10.3008C5.19607 11.5753 4.16288 12.6085 2.88838 12.6085C1.61388 12.6085 0.580688 11.5753 0.580688 10.3008C0.580688 9.02634 1.61388 7.99315 2.88838 7.99315C4.16288 7.99315 5.19607 9.02634 5.19607 10.3008Z"/>
<path d="M12.8884 10.3008C12.8884 11.5753 11.8552 12.6085 10.5807 12.6085C9.30619 12.6085 8.273 11.5753 8.273 10.3008C8.273 9.02634 9.30619 7.99315 10.5807 7.99315C11.8552 7.99315 12.8884 9.02634 12.8884 10.3008Z"/>
<path d="M20.5807 10.3008C20.5807 11.5753 19.5475 12.6085 18.273 12.6085C16.9985 12.6085 15.9653 11.5753 15.9653 10.3008C15.9653 9.02634 16.9985 7.99315 18.273 7.99315C19.5475 7.99315 20.5807 9.02634 20.5807 10.3008Z"/>
<path d="M20.5807 17.9932C20.5807 19.2677 19.5475 20.3008 18.273 20.3008C16.9985 20.3008 15.9653 19.2677 15.9653 17.9932C15.9653 16.7186 16.9985 15.6855 18.273 15.6855C19.5475 15.6855 20.5807 16.7186 20.5807 17.9932Z"/>
<path d="M12.8884 17.9932C12.8884 19.2677 11.8552 20.3008 10.5807 20.3008C9.30619 20.3008 8.273 19.2677 8.273 17.9932C8.273 16.7186 9.30619 15.6855 10.5807 15.6855C11.8552 15.6855 12.8884 16.7186 12.8884 17.9932Z"/>
<path d="M5.19607 17.9932C5.19607 19.2677 4.16288 20.3008 2.88838 20.3008C1.61388 20.3008 0.580688 19.2677 0.580688 17.9932C0.580688 16.7186 1.61388 15.6855 2.88838 15.6855C4.16288 15.6855 5.19607 16.7186 5.19607 17.9932Z"/>
<path d="M12.8884 2.60853C12.8884 3.88304 11.8552 4.91623 10.5807 4.91623C9.30619 4.91623 8.273 3.88304 8.273 2.60853C8.273 1.33403 9.30619 0.300842 10.5807 0.300842C11.8552 0.300842 12.8884 1.33403 12.8884 2.60853Z"/>
<path d="M20.5807 2.60853C20.5807 3.88304 19.5475 4.91623 18.273 4.91623C16.9985 4.91623 15.9653 3.88304 15.9653 2.60853C15.9653 1.33403 16.9985 0.300842 18.273 0.300842C19.5475 0.300842 20.5807 1.33403 20.5807 2.60853Z"/>
</svg>
