<svg width="20" height="21" viewBox="0 0 20 21" xmlns="http://www.w3.org/2000/svg">
<path fill-rule="evenodd" clip-rule="evenodd" d="M7.5372 2.16663C8.50539 2.16652 9.45478 2.43479 10.2896 2.94206C10.5527 3.1019 10.6364 3.44474 10.4766 3.70781C10.3167 3.97088 9.97388 4.05456 9.7108 3.89472C9.04798 3.49199 8.29846 3.28128 7.53732 3.28136C6.77618 3.28144 6.0267 3.49231 5.36395 3.89518C4.70095 4.29821 4.14697 4.88 3.76052 5.58485C3.37399 6.28985 3.16963 7.09157 3.16985 7.90912C3.16993 8.21694 2.92046 8.46655 2.61263 8.46664C2.30481 8.46672 2.0552 8.21725 2.05511 7.90942C2.05485 6.90686 2.30526 5.9204 2.78307 5.04894C3.26095 4.17732 3.9504 3.44992 4.78491 2.94264C5.61967 2.4352 6.56901 2.16673 7.5372 2.16663Z"/>
<path fill-rule="evenodd" clip-rule="evenodd" d="M11.8397 5.31958C12.1241 5.20178 12.4501 5.33682 12.5679 5.62121C12.8672 6.34361 13.0207 7.12238 13.0198 7.90874C13.0194 8.21656 12.7695 8.46579 12.4617 8.46541C12.1539 8.46502 11.9046 8.21517 11.905 7.90734C11.9058 7.26665 11.7806 6.63343 11.538 6.04783C11.4202 5.76344 11.5553 5.43739 11.8397 5.31958Z"/>
<path fill-rule="evenodd" clip-rule="evenodd" d="M9.06831 18.0538C9.13286 18.3548 8.94119 18.6511 8.64021 18.7156C8.27769 18.7934 7.90854 18.8328 7.53832 18.8333C7.23049 18.8337 6.98064 18.5845 6.98025 18.2766C6.97986 17.9688 7.22908 17.719 7.5369 17.7186C7.82886 17.7182 8.12014 17.6871 8.40646 17.6257C8.70744 17.5612 9.00376 17.7528 9.06831 18.0538Z"/>
<path fill-rule="evenodd" clip-rule="evenodd" d="M2.61248 10.4608C2.92031 10.4608 3.16985 10.7104 3.16985 11.0182V13.0917C3.16964 13.9982 3.42087 14.883 3.88997 15.6374C4.35892 16.3915 5.02398 16.9809 5.8003 17.3375C6.08002 17.466 6.20262 17.7969 6.07413 18.0766C5.94564 18.3564 5.61472 18.479 5.33499 18.3505C4.35427 17.9 3.52423 17.1602 2.94334 16.2261C2.36262 15.2922 2.05489 14.203 2.05511 13.0917V11.0182C2.05511 10.7104 2.30466 10.4608 2.61248 10.4608Z"/>
<path fill-rule="evenodd" clip-rule="evenodd" d="M7.5379 4.23978C8.16035 4.23968 8.77009 4.41219 9.30551 4.73755C9.84068 5.06276 10.2816 5.52838 10.5867 6.08481C10.8917 6.64103 11.0512 7.26992 11.051 7.90853V11.0185C11.051 11.3263 10.8014 11.5758 10.4936 11.5758C10.1858 11.5758 9.93625 11.3263 9.93625 11.0185V7.90853C9.9364 7.45491 9.82297 7.01054 9.60925 6.62076C9.3956 6.23113 9.09022 5.91114 8.72662 5.69019C8.36327 5.46939 7.95344 5.35445 7.53808 5.35451C7.12271 5.35458 6.71292 5.46966 6.34963 5.69058C6.08662 5.85052 5.74375 5.76696 5.58381 5.50395C5.42387 5.24094 5.50742 4.89807 5.77043 4.73813C6.30575 4.4126 6.91544 4.23989 7.5379 4.23978Z"/>
<path fill-rule="evenodd" clip-rule="evenodd" d="M4.58245 7.35189C4.89028 7.35189 5.13982 7.60143 5.13982 7.90926V13.0931C5.13973 13.5063 5.23393 13.9126 5.41317 14.2772C5.59238 14.6417 5.85064 14.9527 6.164 15.186C6.47719 15.4192 6.8367 15.5682 7.212 15.623C7.58723 15.6778 7.96979 15.6372 8.32829 15.5038C8.61679 15.3964 8.93769 15.5433 9.04505 15.8318C9.1524 16.1203 9.00555 16.4412 8.71705 16.5485C8.18398 16.7469 7.61236 16.808 7.05091 16.7261C6.48954 16.6441 5.95723 16.4218 5.49837 16.0802C5.03966 15.7387 4.66817 15.2885 4.4128 14.769C4.15749 14.2497 4.02498 13.675 4.02509 13.0931V7.90926C4.02509 7.60143 4.27463 7.35189 4.58245 7.35189Z"/>
<path fill-rule="evenodd" clip-rule="evenodd" d="M6.43708 6.79164C6.72388 6.48978 7.11914 6.31452 7.53768 6.31452C7.95622 6.31452 8.35148 6.48978 8.63828 6.79164C8.92417 7.09252 9.0801 7.4948 9.0801 7.90865V13.0907C9.0801 13.5046 8.92417 13.9068 8.63828 14.2077C8.35148 14.5096 7.95622 14.6848 7.53768 14.6848C7.11914 14.6848 6.72388 14.5096 6.43708 14.2077C6.15119 13.9068 5.99526 13.5046 5.99526 13.0907C5.99526 12.7829 6.2448 12.5333 6.55262 12.5333C6.86045 12.5333 7.10999 12.7829 7.10999 13.0907C7.10999 13.2268 7.16162 13.3519 7.2452 13.4399C7.32787 13.5269 7.43372 13.5701 7.53768 13.5701C7.64164 13.5701 7.74749 13.5269 7.83015 13.4399C7.91374 13.3519 7.96537 13.2268 7.96537 13.0907V7.90865C7.96537 7.77257 7.91374 7.64743 7.83015 7.55946C7.74749 7.47246 7.64164 7.42925 7.53768 7.42925C7.43372 7.42925 7.32787 7.47246 7.2452 7.55946C7.16162 7.64743 7.10999 7.77257 7.10999 7.90865V9.98217C7.10999 10.29 6.86045 10.5395 6.55262 10.5395C6.2448 10.5395 5.99526 10.29 5.99526 9.98217V7.90865C5.99526 7.4948 6.15119 7.09252 6.43708 6.79164Z"/>
<path fill-rule="evenodd" clip-rule="evenodd" d="M10.9202 13.0914C10.9202 12.7835 11.1697 12.534 11.4776 12.534H17.3876C17.6954 12.534 17.9449 12.7835 17.9449 13.0914V18.2752C17.9449 18.583 17.6954 18.8325 17.3876 18.8325H11.4776C11.1697 18.8325 10.9202 18.583 10.9202 18.2752V13.0914ZM12.0349 13.6487V17.7178H16.8302V13.6487H12.0349Z"/>
<path fill-rule="evenodd" clip-rule="evenodd" d="M12.6357 10.2058C13.1072 9.70953 13.7531 9.42505 14.4329 9.42505C15.1126 9.42505 15.7585 9.70953 16.23 10.2058C16.7006 10.7011 16.9603 11.3671 16.9603 12.0559V13.0927C16.9603 13.4005 16.7108 13.6501 16.403 13.6501H12.4627C12.1549 13.6501 11.9054 13.4005 11.9054 13.0927V12.0559C11.9054 11.3671 12.1651 10.7011 12.6357 10.2058ZM14.4329 10.5398C14.0676 10.5398 13.7112 10.6922 13.4438 10.9736C13.1755 11.256 13.0201 11.6449 13.0201 12.0559V12.5353H15.8456V12.0559C15.8456 11.6449 15.6902 11.256 15.4219 10.9736C15.1545 10.6922 14.7981 10.5398 14.4329 10.5398Z" />
<path fill-rule="evenodd" clip-rule="evenodd" d="M14.0985 16.4932C14.2023 16.5359 14.3156 16.5591 14.4326 16.5591C14.4909 16.5591 14.5479 16.5534 14.6031 16.5425C14.7753 16.5086 14.9298 16.4243 15.0486 16.3066C15.0548 16.3005 15.0609 16.2942 15.0669 16.2879C15.1815 16.1672 15.2541 16.0213 15.2846 15.8696C15.2956 15.8147 15.3012 15.7591 15.3012 15.7037C15.3012 15.5933 15.2794 15.4825 15.2357 15.3781C15.2174 15.3343 15.1952 15.2916 15.1692 15.2506C15.106 15.151 15.0208 15.0625 14.9172 14.9939C14.8757 14.9664 14.8313 14.9421 14.7841 14.9215C14.6734 14.8732 14.5536 14.8482 14.4326 14.8482C14.3724 14.8482 14.3119 14.8544 14.2521 14.8669C14.0816 14.9027 13.9318 14.9867 13.8166 15.1008C13.8104 15.1069 13.8043 15.1132 13.7983 15.1195C13.6815 15.2425 13.608 15.3924 13.5787 15.5474C13.5689 15.599 13.5641 15.6514 13.5641 15.7037C13.5641 15.8083 13.5836 15.9131 13.6227 16.0125C13.6451 16.0695 13.674 16.1248 13.7091 16.1769C13.7661 16.2613 13.8393 16.3374 13.9279 16.3997C13.9808 16.437 14.038 16.4684 14.0985 16.4932ZM14.4326 14.3297C14.715 14.3297 14.986 14.4182 15.2109 14.5765C15.435 14.7342 15.6014 14.9522 15.6974 15.1965C15.7934 15.4404 15.8177 15.7057 15.7694 15.9612C15.7211 16.2168 15.6007 16.4591 15.4151 16.6546C15.2288 16.8507 14.9844 16.9914 14.7092 17.049C14.4335 17.1068 14.1484 17.0766 13.8927 16.965C13.6377 16.8537 13.4292 16.6696 13.2866 16.4449C13.1445 16.2208 13.0717 15.963 13.0717 15.7037C13.0717 15.3574 13.2018 15.0144 13.4501 14.7528C13.7004 14.4892 14.0525 14.3297 14.4326 14.3297Z"/>
</svg>
