<svg width="20" height="21" viewBox="0 0 20 21" xmlns="http://www.w3.org/2000/svg">
<path fill-rule="evenodd" clip-rule="evenodd" d="M3.82892 10.1032C4.62626 9.67674 5.68996 9.42954 6.83488 9.42954C7.97963 9.42954 9.04333 9.67625 9.84073 10.1025C10.6149 10.5163 11.2692 11.1812 11.2692 12.0563C11.2692 12.9313 10.6149 13.5962 9.84073 14.01C9.04333 14.4363 7.97963 14.683 6.83488 14.683C5.69 14.683 4.62629 14.4359 3.82894 14.0095C3.05501 13.5956 2.40059 12.9308 2.40059 12.0563C2.40059 11.1819 3.05504 10.5171 3.82892 10.1032ZM4.34783 11.0734C3.71593 11.4114 3.5009 11.7848 3.5009 12.0563C3.5009 12.3279 3.71597 12.7013 4.34781 13.0392C4.95623 13.3646 5.83459 13.5827 6.83488 13.5827C7.83531 13.5827 8.71367 13.3648 9.32204 13.0397C9.95365 12.702 10.1689 12.3286 10.1689 12.0563C10.1689 11.7839 9.95365 11.4105 9.32204 11.0729C8.71367 10.7477 7.83531 10.5298 6.83488 10.5298C5.83462 10.5298 4.95627 10.748 4.34783 11.0734Z"/>
<path fill-rule="evenodd" clip-rule="evenodd" d="M2.95075 11.506C3.25459 11.506 3.5009 11.7524 3.5009 12.0563V16.2066C3.5009 16.4782 3.71594 16.8517 4.3477 17.1895C4.95607 17.5149 5.83442 17.733 6.83488 17.733C7.83547 17.733 8.71383 17.5151 9.32215 17.19C9.95368 16.8524 10.1689 16.479 10.1689 16.2066V12.0563C10.1689 11.7524 10.4152 11.506 10.719 11.506C11.0229 11.506 11.2692 11.7524 11.2692 12.0563V16.2066C11.2692 17.0816 10.615 17.7465 9.84086 18.1603C9.04348 18.5866 7.97977 18.8333 6.83488 18.8333C5.68985 18.8333 4.62614 18.5862 3.82881 18.1598C3.05488 17.7459 2.40059 17.081 2.40059 16.2066V12.0563C2.40059 11.7524 2.64691 11.506 2.95075 11.506Z"/>
<path fill-rule="evenodd" clip-rule="evenodd" d="M2.95075 13.5809C3.25459 13.5809 3.5009 13.8272 3.5009 14.131C3.5009 14.4034 3.71608 14.7768 4.34761 15.1144C4.95593 15.4396 5.83429 15.6574 6.83488 15.6574C7.83534 15.6574 8.71369 15.4393 9.32206 15.114C9.95382 14.7761 10.1689 14.4027 10.1689 14.131C10.1689 13.8272 10.4152 13.5809 10.719 13.5809C11.0229 13.5809 11.2692 13.8272 11.2692 14.131C11.2692 15.0055 10.6149 15.6703 9.84095 16.0842C9.04363 16.5106 7.97991 16.7577 6.83488 16.7577C5.68999 16.7577 4.62628 16.511 3.8289 16.0848C3.05474 15.671 2.40059 15.0061 2.40059 14.131C2.40059 13.8272 2.64691 13.5809 2.95075 13.5809Z"/>
<path fill-rule="evenodd" clip-rule="evenodd" d="M2.83308 2.64497C3.11523 2.34347 3.50601 2.16663 3.92184 2.16663H16.5453C16.9611 2.16663 17.3519 2.34347 17.634 2.64497C17.915 2.94523 18.0671 3.34512 18.0671 3.75506V12.0553C18.0671 12.4653 17.915 12.8651 17.634 13.1654C17.3519 13.4669 16.9611 13.6437 16.5453 13.6437H12.6611C12.3573 13.6437 12.111 13.3974 12.111 13.0936C12.111 12.7898 12.3573 12.5434 12.6611 12.5434H16.5453C16.6448 12.5434 16.7483 12.5015 16.8306 12.4136C16.9141 12.3244 16.9668 12.1961 16.9668 12.0553V3.75506C16.9668 3.61427 16.9141 3.48597 16.8306 3.3968C16.7483 3.30887 16.6448 3.26694 16.5453 3.26694H3.92184C3.82227 3.26694 3.71876 3.30887 3.63646 3.3968C3.55302 3.48597 3.50033 3.61427 3.50033 3.75506V8.94648C3.50033 9.25033 3.25402 9.49664 2.95018 9.49664C2.64634 9.49664 2.40002 9.25033 2.40002 8.94648V3.75506C2.40002 3.34512 2.55208 2.94523 2.83308 2.64497Z"/>
<path fill-rule="evenodd" clip-rule="evenodd" d="M10.7969 6.50701C10.5876 6.40573 10.3601 6.36308 10.1345 6.38098C9.90874 6.39889 9.68814 6.47716 9.49299 6.61185C9.29756 6.74673 9.13309 6.93458 9.01786 7.16106C8.90257 7.38767 8.84134 7.6438 8.84168 7.90562C8.84209 8.20946 8.5961 8.4561 8.29226 8.4565C7.98841 8.4569 7.74178 8.21091 7.74138 7.90707C7.74081 7.47396 7.84185 7.04604 8.03718 6.66212C8.23257 6.27807 8.51712 5.94843 8.86799 5.70628C9.21912 5.46393 9.62462 5.31767 10.0474 5.28412C10.4703 5.25057 10.8931 5.33118 11.2762 5.51658C11.659 5.70185 11.9881 5.98476 12.2358 6.33579C12.4835 6.68663 12.6429 7.0954 12.7022 7.52421C12.7616 7.953 12.7194 8.3912 12.5788 8.79953C12.4382 9.20795 12.2027 9.57594 11.8904 9.86795C11.6685 10.0755 11.3203 10.0638 11.1128 9.84188C10.9053 9.61995 10.9169 9.27181 11.1389 9.06428C11.316 8.89865 11.4545 8.68509 11.5385 8.44133C11.6224 8.19747 11.6481 7.93371 11.6123 7.67505C11.5765 7.41642 11.4809 7.17424 11.3369 6.97027C11.1931 6.76647 11.0065 6.60844 10.7969 6.50701Z"/>
<path fill-rule="evenodd" clip-rule="evenodd" d="M5.04768 6.08692C5.14998 6.12886 5.26193 6.15192 5.37811 6.15192C5.43589 6.15192 5.49228 6.14626 5.54674 6.13556C5.71822 6.10184 5.87055 6.01804 5.98689 5.90317C5.99487 5.8953 6.00267 5.88728 6.01031 5.87911C6.12112 5.76062 6.19031 5.61923 6.21966 5.47374C6.23057 5.41969 6.23597 5.36507 6.23597 5.31085C6.23597 5.203 6.21472 5.09411 6.17146 4.99108C6.15432 4.95025 6.13373 4.91034 6.10963 4.87178C6.04754 4.77241 5.96242 4.68283 5.85717 4.6133C5.81785 4.58732 5.77571 4.56414 5.73091 4.5443C5.62017 4.49525 5.49987 4.46978 5.37811 4.46977C5.3176 4.46977 5.25674 4.47606 5.1965 4.48887C5.02779 4.52475 4.8813 4.60793 4.76933 4.71852C4.76134 4.72641 4.75354 4.73443 4.74591 4.74259C4.63202 4.86436 4.56191 5.01089 4.53414 5.16019C4.52489 5.20993 4.52024 5.26036 4.52024 5.31085C4.52024 5.4117 4.53877 5.51279 4.57608 5.6091C4.59835 5.66659 4.62746 5.72261 4.6633 5.77559C4.7178 5.85614 4.78787 5.92966 4.87316 5.99059C4.92696 6.02903 4.98554 6.06146 5.04768 6.08692ZM5.37811 3.9513C5.66074 3.9513 5.93031 4.04131 6.15245 4.20002C6.37355 4.35798 6.53527 4.57452 6.62811 4.81419C6.7208 5.05345 6.74409 5.31296 6.69764 5.56266C6.65116 5.81253 6.53487 6.05144 6.35317 6.24573C6.17074 6.4408 5.9291 6.58289 5.65431 6.64134C5.3788 6.69994 5.09413 6.66907 4.83974 6.5564C4.58646 6.44422 4.382 6.25973 4.24342 6.03797C4.10524 5.81684 4.03536 5.56398 4.03536 5.31085C4.03536 4.97317 4.16012 4.63572 4.40304 4.37597C4.6483 4.11373 4.9973 3.9513 5.37811 3.9513Z"/>
<path fill-rule="evenodd" clip-rule="evenodd" d="M14.7581 11.2749C14.8604 11.3169 14.9723 11.3399 15.0885 11.3399C15.1463 11.3399 15.2027 11.3343 15.2572 11.3236C15.4286 11.2898 15.581 11.2061 15.6973 11.0912C15.7053 11.0833 15.7131 11.0753 15.7207 11.0671C15.8316 10.9486 15.9007 10.8072 15.9301 10.6618C15.941 10.6077 15.9464 10.5531 15.9464 10.4989C15.9464 10.391 15.9251 10.2821 15.8819 10.1791C15.8647 10.1383 15.8441 10.0984 15.82 10.0598C15.758 9.96043 15.6728 9.87084 15.5676 9.80131C15.5283 9.77534 15.4861 9.75216 15.4413 9.73232C15.3306 9.68327 15.2103 9.65779 15.0885 9.65778C15.028 9.65778 14.9672 9.66407 14.9069 9.67688C14.7382 9.71277 14.5917 9.79595 14.4797 9.90654C14.4718 9.91442 14.464 9.92244 14.4563 9.9306C14.3424 10.0524 14.2723 10.1989 14.2446 10.3482C14.2353 10.3979 14.2307 10.4484 14.2307 10.4989C14.2307 10.5997 14.2492 10.7008 14.2865 10.7971C14.3088 10.8546 14.3379 10.9106 14.3737 10.9636C14.4282 11.0442 14.4983 11.1177 14.5836 11.1786C14.6374 11.217 14.696 11.2495 14.7581 11.2749ZM15.0885 9.13932C15.3712 9.13932 15.6408 9.22934 15.8629 9.38803C16.084 9.54599 16.2457 9.76252 16.3385 10.0022C16.4312 10.2415 16.4545 10.501 16.4081 10.7507C16.3616 11.0006 16.2453 11.2395 16.0636 11.4337C15.8812 11.6288 15.6395 11.7709 15.3647 11.8294C15.0892 11.888 14.8045 11.8571 14.5502 11.7444C14.2969 11.6322 14.0924 11.4477 13.9538 11.226C13.8156 11.0048 13.7458 10.752 13.7458 10.4989C13.7458 10.1612 13.8705 9.82375 14.1135 9.56398C14.3587 9.30174 14.7077 9.13932 15.0885 9.13932Z"/>
</svg>
