<svg width="16" height="17" viewBox="0 0 16 17" xmlns="http://www.w3.org/2000/svg">
<path d="M7.30003 8.96662L6.33336 8.01662C6.21114 7.8944 6.05836 7.83329 5.87503 7.83329C5.6917 7.83329 5.53336 7.89996 5.40003 8.03329C5.27781 8.15551 5.2167 8.31107 5.2167 8.49996C5.2167 8.68885 5.27781 8.8444 5.40003 8.96662L6.83336 10.4C6.9667 10.5333 7.12225 10.6 7.30003 10.6C7.47781 10.6 7.63336 10.5333 7.7667 10.4L10.6 7.56662C10.7334 7.43329 10.7973 7.27773 10.7917 7.09996C10.7861 6.92218 10.7223 6.76662 10.6 6.63329C10.4667 6.49996 10.3084 6.43051 10.125 6.42496C9.9417 6.4194 9.78336 6.48329 9.65003 6.61662L7.30003 8.96662ZM5.43336 15L4.4667 13.3666L2.63336 12.9666C2.4667 12.9333 2.33336 12.8472 2.23336 12.7083C2.13336 12.5694 2.09447 12.4166 2.1167 12.25L2.30003 10.3666L1.05003 8.93329C0.938917 8.81107 0.883362 8.66662 0.883362 8.49996C0.883362 8.33329 0.938917 8.18885 1.05003 8.06662L2.30003 6.63329L2.1167 4.74996C2.09447 4.58329 2.13336 4.43051 2.23336 4.29162C2.33336 4.15273 2.4667 4.06662 2.63336 4.03329L4.4667 3.63329L5.43336 1.99996C5.52225 1.85551 5.64447 1.75829 5.80003 1.70829C5.95558 1.65829 6.11114 1.66662 6.2667 1.73329L8.00003 2.46662L9.73336 1.73329C9.88892 1.66662 10.0445 1.65829 10.2 1.70829C10.3556 1.75829 10.4778 1.85551 10.5667 1.99996L11.5334 3.63329L13.3667 4.03329C13.5334 4.06662 13.6667 4.15273 13.7667 4.29162C13.8667 4.43051 13.9056 4.58329 13.8834 4.74996L13.7 6.63329L14.95 8.06662C15.0611 8.18885 15.1167 8.33329 15.1167 8.49996C15.1167 8.66662 15.0611 8.81107 14.95 8.93329L13.7 10.3666L13.8834 12.25C13.9056 12.4166 13.8667 12.5694 13.7667 12.7083C13.6667 12.8472 13.5334 12.9333 13.3667 12.9666L11.5334 13.3666L10.5667 15C10.4778 15.1444 10.3556 15.2416 10.2 15.2916C10.0445 15.3416 9.88892 15.3333 9.73336 15.2666L8.00003 14.5333L6.2667 15.2666C6.11114 15.3333 5.95558 15.3416 5.80003 15.2916C5.64447 15.2416 5.52225 15.1444 5.43336 15ZM6.30003 13.8L8.00003 13.0666L9.73336 13.8L10.6667 12.2L12.5 11.7666L12.3334 9.89996L13.5667 8.49996L12.3334 7.06662L12.5 5.19996L10.6667 4.79996L9.70003 3.19996L8.00003 3.93329L6.2667 3.19996L5.33336 4.79996L3.50003 5.19996L3.6667 7.06662L2.43336 8.49996L3.6667 9.89996L3.50003 11.8L5.33336 12.2L6.30003 13.8Z"/>
</svg>
